<svg width="233" height="167" viewBox="0 0 233 167" fill="none" xmlns="http://www.w3.org/2000/svg">
<line x1="75.8778" y1="40.7482" x2="4.05215" y2="45.7552" stroke="#FF6600" stroke-width="1.5"/>
<line x1="4.63861" y1="45.0405" x2="0.748922" y2="116.935" stroke="#FF6600" stroke-width="1.5"/>
<line x1="0.066777" y1="116.253" x2="199.272" y2="134.06" stroke="#FF6600" stroke-width="1.5"/>
<path d="M233 133.857C233 143.167 225.389 167 216 167C206.611 167 199 143.167 199 133.857C199 124.547 206.611 117 216 117C225.389 117 233 124.547 233 133.857Z" fill="#FF6600"/>
<circle cx="216.5" cy="135.5" r="14.5" fill="white"/>
<g clip-path="url(#clip0_21_28)">
<path d="M216.5 134.614C218.457 134.614 220.044 133.027 220.044 131.069C220.044 129.112 218.457 127.525 216.5 127.525C214.542 127.525 212.956 129.112 212.956 131.069C212.956 133.027 214.542 134.614 216.5 134.614Z" stroke="#FF6600" stroke-width="2.75" stroke-linecap="round" stroke-linejoin="round"/>
<path d="M211.183 143.475V141.703C211.183 140.763 211.557 139.861 212.221 139.196C212.886 138.532 213.788 138.158 214.728 138.158H218.272C219.212 138.158 220.114 138.532 220.778 139.196C221.443 139.861 221.817 140.763 221.817 141.703V143.475" stroke="#FF6600" stroke-width="2.75" stroke-linecap="round" stroke-linejoin="round"/>
</g>
<circle cx="96.5" cy="39.5" r="30.5" fill="#FF6600" fill-opacity="0.5"/>
<circle cx="96" cy="40" r="40" fill="#FF6600" fill-opacity="0.25"/>
<circle cx="96" cy="40" r="20" fill="white"/>
<g clip-path="url(#clip1_21_28)">
<path d="M96 42.4444C98.025 42.4444 99.6666 40.8028 99.6666 38.7778C99.6666 36.7527 98.025 35.1111 96 35.1111C93.9749 35.1111 92.3333 36.7527 92.3333 38.7778C92.3333 40.8028 93.9749 42.4444 96 42.4444Z" stroke="#232323" stroke-width="2.75" stroke-linecap="round" stroke-linejoin="round"/>
<path d="M102.914 45.6919L97.7282 50.8778C97.2698 51.3357 96.6484 51.5929 96.0006 51.5929C95.3527 51.5929 94.7313 51.3357 94.273 50.8778L89.0858 45.6919C87.7184 44.3244 86.7872 42.5822 86.41 40.6855C86.0328 38.7888 86.2264 36.8228 86.9665 35.0362C87.7066 33.2496 88.9598 31.7225 90.5678 30.6482C92.1757 29.5738 94.0661 29.0004 96 29.0004C97.9338 29.0004 99.8242 29.5738 101.432 30.6482C103.04 31.7225 104.293 33.2496 105.033 35.0362C105.773 36.8228 105.967 38.7888 105.59 40.6855C105.213 42.5822 104.281 44.3244 102.914 45.6919V45.6919Z" stroke="#232323" stroke-width="2.75" stroke-linecap="round" stroke-linejoin="round"/>
</g>
<defs>
<clipPath id="clip0_21_28">
<rect width="21.2667" height="21.2667" fill="white" transform="translate(205.867 124.867)"/>
</clipPath>
<clipPath id="clip1_21_28">
<rect width="29.3333" height="29.3333" fill="white" transform="translate(81.3333 25.3333)"/>
</clipPath>
</defs>
</svg>
